<svg xmlns="http://www.w3.org/2000/svg" version="1.1" xmlns:xlink="http://www.w3.org/1999/xlink" xmlns:svgjs="http://svgjs.dev/svgjs" width="2000" height="1500" viewBox="0 0 2000 1500"><rect width="2000" height="1500" fill="#ff0d00"></rect><g transform="matrix(0.75,0,0,0.75,249.090909090909,282.7536437246963)"><svg viewBox="0 0 396 247" data-background-color="#ff0d00" preserveAspectRatio="xMidYMid meet" height="1247" width="2000" xmlns="http://www.w3.org/2000/svg" xmlns:xlink="http://www.w3.org/1999/xlink"><g id="tight-bounds" transform="matrix(1,0,0,1,0.2400000000000091,-0.09999999999999432)"><svg viewBox="0 0 395.52 247.2" height="247.2" width="395.52"><g><svg></svg></g><g><svg viewBox="0 0 395.52 247.2" height="247.2" width="395.52"><g><g><path xmlns="http://www.w3.org/2000/svg" d="M195.901 198.586v2.479h-71.887c-0.826-11.361-2.582-23.549-5.268-36.564-14.46 14.46-28.92 26.648-43.38 36.564h-72.197c-1.446-8.469-2.169-19.686-2.169-33.651 0-10.69 1.218-21.417 3.654-32.181h75.217c-2.349 12.139-3.85 23.961-4.505 35.465 15.286-8.263 27.887-17.868 37.803-28.816-0.646-2.223-1.321-4.439-2.026-6.649l80.15 0c3.072 20.218 4.608 41.335 4.608 63.353zM50.144 103.459c13.716-10.329 23.673-21.484 29.87-33.464-5.784-9.089-11.671-17.042-17.662-23.86h102.873c9.43 20.67 16.686 42.614 21.768 65.832l-84.442 0c-3.139-7.457-6.623-14.838-10.453-22.142-2.55 7.487-4.815 14.868-6.795 22.142l-47.726 0c4.239-2.565 8.428-5.401 12.567-8.508zM292.577 162.332c0 11.775 0.516 24.685 1.549 38.733h-68.169c-5.439-21.092-9.131-43.036-11.077-65.832h165.83c-26.904 10.415-56.282 17.383-88.133 20.902zM213.253 96.332c0-18.798 1.136-35.53 3.408-50.197h167.944c4.876 19.001 7.973 40.945 9.291 65.832l-70.515 0c-4.431-16.711-12.426-31.838-23.987-45.381-2.271 14.054-4.006 29.181-5.205 45.381l-80.68 0c-0.171-5.17-0.256-10.381-0.256-15.635z" fill="#ffffff" fill-rule="nonzero" stroke="none" stroke-width="1" stroke-linecap="butt" stroke-linejoin="miter" stroke-miterlimit="10" stroke-dasharray="" stroke-dashoffset="0" font-family="none" font-weight="none" font-size="none" text-anchor="none" style="mix-blend-mode: normal" data-fill-palette-color="tertiary"></path></g></g><g transform="matrix(1,0,0,1,0,114.59513743838248)"><svg viewBox="0 0 395.52 18.009725123235025" height="18.009725123235025" width="395.52"><g><svg viewBox="0 0 395.52 18.009725123235025" height="18.009725123235025" width="395.52"><g><svg viewBox="0 0 395.52 18.009725123235025" height="18.009725123235025" width="395.52"><g><svg viewBox="0 0 395.52 18.009725123235025" height="18.009725123235025" width="395.52"><g><svg viewBox="0 0 395.52 18.009725123235025" height="18.009725123235025" width="395.52"><g><svg viewBox="0 0 395.52 18.009725123235025" height="18.009725123235025" width="395.52"><g transform="matrix(1,0,0,1,0,0)"><svg width="395.52" viewBox="3.049999952316284 -26.149999618530273 598.4100341796875 27.25" height="18.009725123235025" data-palette-color="#000000"><path d="M34.5-0.4L34.5-0.4 34.5 0 22.9 0Q22.7-2.75 22.05-5.9L22.05-5.9Q18.55-2.4 15.05 0L15.05 0 3.4 0Q3.05-2.05 3.05-5.43 3.05-8.8 4.05-12.2L4.05-12.2Q7.65-13.25 10.98-15.75 14.3-18.25 15.8-21.15L15.8-21.15Q14.4-23.35 12.95-25L12.95-25 29.55-25Q34.5-14.15 34.5-0.4ZM21.15-9.55L21.15-9.55Q19.9-13.85 17.75-17.95L17.75-17.95Q15.4-11.05 15.05-4.9L15.05-4.9Q18.75-6.9 21.15-9.55ZM68.25-22.7L68.25-22.7Q68.25-24.05 67.85-25L67.85-25 82.1-25Q83.9-20.2 84.77-13.25 85.65-6.3 85.7 0L85.7 0 74.15 0Q73.8-9 71.2-17.35L71.2-17.35Q66.85-8.85 66.5 0L66.5 0 56.7 0Q55.4-9.8 51.7-17.4L51.7-17.4Q49-11.05 49-5.6L49-5.6Q49-2.65 49.7 0L49.7 0 37.55 0Q37.2-2.05 37.2-5.43 37.2-8.8 38.2-12.2L38.2-12.2Q41.75-13.25 45.02-15.65 48.3-18.05 49.85-20.9L49.85-20.9Q48.55-23.05 47.1-25L47.1-25 62.9-25Q64.8-19.85 65.75-13.8L65.75-13.8Q68.25-18.45 68.25-22.7ZM122.5-0.4L122.5-0.4 122.5 0 110.9 0Q110.7-2.85 110.05-5.9L110.05-5.9Q106.95-2.75 103.05 0L103.05 0 91.4 0Q91.05-2.05 91.05-5.43 91.05-8.8 92.05-12.2L92.05-12.2Q95.65-13.25 98.97-15.75 102.3-18.25 103.8-21.15L103.8-21.15Q102.45-23.25 100.95-25L100.95-25 117.55-25Q122.5-14.25 122.5-0.4ZM109.15-9.55L109.15-9.55Q107.84-14 105.75-17.95L105.75-17.95Q103.4-11.05 103.05-4.9L103.05-4.9Q106.65-6.75 109.15-9.55ZM154.54-16.3L154.54-16.3 154.49-14.6Q150.49-12.45 144.49-11.25L144.49-11.25Q148.79-10.1 152.79-10.1L152.79-10.1 153.84-10.1Q156.59-6.05 157.39 0L157.39 0 144.44 0Q143.94-3.5 142.42-6.03 140.89-8.55 138.69-9.45L138.69-9.45Q138.64-8.6 138.64-6.05 138.64-3.5 138.94 0L138.94 0 128.04 0Q126.59-7.25 126.59-13.48 126.59-19.7 127.29-25L127.29-25 153.39-25Q154.54-19.95 154.54-16.3ZM139.74-21.65L139.74-21.65Q139.14-17.25 138.84-13L138.84-13Q141.59-13.4 143.34-14.95L143.34-14.95Q142.39-18.3 139.74-21.65ZM185.09-25L191.04-25Q191.34-19.75 191.34-13.93 191.34-8.1 190.84 0L190.84 0 186.04 0Q176.34-5.2 168.24-14.15L168.24-14.15Q168.64-10.8 168.64-7.28 168.64-3.75 168.39 0L168.39 0 162.54 0Q163.54-6.15 163.54-11.38 163.54-16.6 163.04-19.65L163.04-19.65Q161.04-22.65 159.89-25L159.89-25 174.09-25Q176.19-21.4 179.81-17.57 183.44-13.75 186.74-11.6L186.74-11.6Q186.74-18.9 185.09-25L185.09-25ZM228.99-0.4L228.99-0.4 228.99 0 217.39 0Q217.19-2.85 216.54-5.9L216.54-5.9Q213.44-2.75 209.54 0L209.54 0 197.89 0Q197.54-2.05 197.54-5.43 197.54-8.8 198.54-12.2L198.54-12.2Q202.14-13.25 205.46-15.75 208.79-18.25 210.29-21.15L210.29-21.15Q208.94-23.25 207.44-25L207.44-25 224.04-25Q228.99-14.25 228.99-0.4ZM215.64-9.55L215.64-9.55Q214.34-14 212.24-17.95L212.24-17.95Q209.89-11.05 209.54-4.9L209.54-4.9Q213.14-6.75 215.64-9.55ZM253.53-21.75L253.53-21.75Q252.24-13.85 252.24-8.85 252.24-3.85 252.63 0L252.63 0 241.74 0Q240.03-7.95 240.03-17.1L240.03-17.1Q240.03-18.65 240.13-21.75L240.13-21.75Q235.88-20.5 234.94-16L234.94-16 229.99-16.3 231.78-25 265.04-25Q264.04-19.5 262.74-16L262.74-16 257.69-16.3Q257.88-17.1 257.88-17.9L257.88-17.9Q257.88-19.85 256.69-20.8 255.49-21.75 253.53-21.75ZM300.13-20.85L300.13-20.85Q300.13-11.05 298.23 0L298.23 0 286.28 0Q287.08-5.9 287.33-12.7L287.33-12.7Q284.73-14.3 281.53-14.65L281.53-14.65Q281.23-7.3 279.93 0L279.93 0 268.58 0Q269.23-4.9 269.23-11.73 269.23-18.55 268.33-25L268.33-25 281.53-25Q281.63-22.95 281.63-18.9L281.63-18.9Q284.53-18 287.38-16.45L287.38-16.45Q287.38-21.1 287.03-25L287.03-25 300.03-25Q300.13-22.2 300.13-20.85ZM334.38-7.25L334.38-6.25Q334.38-3.4 334.63 0L334.63 0 323.63 0Q321.58-7.95 321.58-16.9L321.58-16.9Q321.58-21.45 322.13-25L322.13-25 349.23-25Q350.68-19.35 350.83-11.55L350.83-11.55Q343.43-8.25 334.38-7.25L334.38-7.25ZM334.43-10.7L334.43-10.7Q337.63-11.1 339.78-12.3L339.78-12.3Q338.98-17.6 335.48-21.7L335.48-21.7Q334.68-16.75 334.43-10.7ZM359.07-0.15L359.07-0.15Q354.63-5.85 354.63-11.85 354.63-17.85 359.63-22 364.63-26.15 372.43-26.15L372.43-26.15Q376.57-26.15 380.68-24.9L380.68-24.9Q384.28-20.35 384.28-15.15L384.28-15.15Q384.28-8.6 378.93-3.75 373.57 1.1 365.98 1.1L365.98 1.1Q362.73 1.1 359.07-0.15ZM366.68-21.8L366.68-21.8Q364.93-18.8 364.93-14.75 364.93-10.7 366.7-7.28 368.48-3.85 371.57-2.35L371.57-2.35Q373.93-5.35 373.93-9.3 373.93-13.25 372-16.65 370.07-20.05 366.68-21.8ZM416.92-16.3L416.92-16.3 416.87-14.6Q412.87-12.45 406.87-11.25L406.87-11.25Q411.17-10.1 415.17-10.1L415.17-10.1 416.22-10.1Q418.97-6.05 419.77 0L419.77 0 406.82 0Q406.32-3.5 404.8-6.03 403.27-8.55 401.07-9.45L401.07-9.45Q401.02-8.6 401.02-6.05 401.02-3.5 401.32 0L401.32 0 390.42 0Q388.97-7.25 388.97-13.48 388.97-19.7 389.67-25L389.67-25 415.77-25Q416.92-19.95 416.92-16.3ZM402.12-21.65L402.12-21.65Q401.52-17.25 401.22-13L401.22-13Q403.97-13.4 405.72-14.95L405.72-14.95Q404.77-18.3 402.12-21.65ZM444.72-21.75L444.72-21.75Q443.42-13.85 443.42-8.85 443.42-3.85 443.82 0L443.82 0 432.92 0Q431.22-7.95 431.22-17.1L431.22-17.1Q431.22-18.65 431.32-21.75L431.32-21.75Q427.07-20.5 426.12-16L426.12-16 421.17-16.3 422.97-25 456.22-25Q455.22-19.5 453.92-16L453.92-16 448.87-16.3Q449.07-17.1 449.07-17.9L449.07-17.9Q449.07-19.85 447.87-20.8 446.67-21.75 444.72-21.75ZM477.02-14.2L477.02-14.2 481.77-13.9Q482.42-13.9 482.77-13.95L482.77-13.95 480.42-9.55 479.97-9.55Q479.02-9.55 477.27-10.08 475.52-10.6 474.77-10.6L474.77-10.6Q472.82-10.6 471.62-8.05L471.62-8.05Q471.37-5.2 471.37-3.55 471.37-1.9 471.47 0L471.47 0 460.62 0Q459.67-6.4 459.67-13.23 459.67-20.05 460.37-24.95L460.37-24.95 487.07-24.95Q486.17-19.55 485.47-17.4L485.47-17.4 480.07-17.15Q480.52-18.4 480.52-19.3L480.52-19.3Q480.52-21.7 476.87-21.7L476.87-21.7Q475.27-21.7 473.92-21.45L473.92-21.45Q472.82-17 472.12-12.35L472.12-12.35Q474.12-14.2 477.02-14.2ZM493.46-0.15L493.46-0.15Q489.01-5.85 489.01-11.85 489.01-17.85 494.01-22 499.01-26.15 506.81-26.15L506.81-26.15Q510.96-26.15 515.07-24.9L515.07-24.9Q518.66-20.35 518.66-15.15L518.66-15.15Q518.66-8.6 513.32-3.75 507.96 1.1 500.37 1.1L500.37 1.1Q497.12 1.1 493.46-0.15ZM501.06-21.8L501.06-21.8Q499.31-18.8 499.31-14.75 499.31-10.7 501.09-7.28 502.87-3.85 505.96-2.35L505.96-2.35Q508.31-5.35 508.31-9.3 508.31-13.25 506.39-16.65 504.46-20.05 501.06-21.8ZM533.91-3.85Q536.26-3.3 538.41-3.3 540.56-3.3 541.84-4.28 543.11-5.25 543.71-7.65L543.71-7.65 549.71-7.45Q548.96-2.95 547.71 0L547.71 0 523.16 0Q522.21-6.4 522.21-13.25 522.21-20.1 522.91-25L522.91-25 537.31-25Q534.01-12.35 533.91-3.85L533.91-3.85ZM553.86-25L567.36-25 567.36-23.65Q567.36-10.45 565.71 0L565.71 0 553.71 0Q554.66-4.6 554.66-10.63 554.66-16.65 553.86-25L553.86-25ZM576.26-0.15L576.26-0.15Q571.81-5.85 571.81-11.85 571.81-17.85 576.81-22 581.81-26.15 589.61-26.15L589.61-26.15Q593.76-26.15 597.86-24.9L597.86-24.9Q601.46-20.35 601.46-15.15L601.46-15.15Q601.46-8.6 596.11-3.75 590.76 1.1 583.16 1.1L583.16 1.1Q579.91 1.1 576.26-0.15ZM583.86-21.8L583.86-21.8Q582.11-18.8 582.11-14.75 582.11-10.7 583.88-7.28 585.66-3.85 588.76-2.35L588.76-2.35Q591.11-5.35 591.11-9.3 591.11-13.25 589.18-16.65 587.26-20.05 583.86-21.8Z" opacity="1" transform="matrix(1,0,0,1,0,0)" fill="#000000" class="undefined-text-0" data-fill-palette-color="primary" id="text-0"></path></svg></g></svg></g></svg></g></svg></g></svg></g></svg></g></svg></g></svg></g><defs></defs></svg><rect width="395.52" height="247.2" fill="none" stroke="none" visibility="hidden"></rect></g></svg></g></svg>